<svg xmlns="http://www.w3.org/2000/svg" width="117" height="153" viewBox="0 0 117 153"><defs><style>.a{mix-blend-mode:soft-light;isolation:isolate;}.b{fill:#3e4932;}.c{fill:#fff;}.d{fill:#008098;}.e{fill:#118098;font-size:34px;font-family:BentonSans-Bold, BentonSans Bold;font-weight:700;}</style></defs><g transform="translate(-130 -86)"><g transform="translate(-143.277 -227.307)"><g class="a" transform="translate(290.837 313.923)"><g transform="translate(0 0)"><path class="b" d="M360,377.536l-23.81-2.43c-16.342-1.668-28.71-15.993-27.353-32.363a30.033,30.033,0,0,1,32.944-27.376l52.845,5.393h0a12.036,12.036,0,0,1-13.2,10.752l-40.491-4.132a18.213,18.213,0,0,0-20.011,15.468,17.983,17.983,0,0,0,15.983,20.234l24.311,2.481a6.018,6.018,0,0,1,5.376,6.6h0A6.018,6.018,0,0,1,360,377.536Z" transform="translate(-308.732 -315.21)"/></g><g transform="translate(4.399 24.413)"><path class="b" d="M355.472,473.979,322.329,434.7h0A12.049,12.049,0,0,1,339.3,436.14l18.278,21.653c5.393-3.806,10.5-7.456,15.489-11.077,1.37-.994,2.8-1.98,4.174-2.934,7.876-5.452,15.314-10.6,16.15-18.782a17.983,17.983,0,0,0-16.047-19.694l-25.8-2.633a6.018,6.018,0,0,1-5.376-6.6h0a6.018,6.018,0,0,1,6.6-5.376L378,393.275c15.663,1.6,27.8,14.818,27.507,30.56-.285,15.217-12.059,23.367-21.416,29.844-1.386.96-2.7,1.866-3.959,2.782-6.414,4.651-13.005,9.347-20.149,14.356Z" transform="translate(-322.329 -390.668)"/></g></g><g transform="translate(282.278 313.307)"><path class="c" d="M337.524,374.2H313.234c-16.671,0-30.635-13.189-30.951-29.857a30.479,30.479,0,0,1,30.44-31.034h53.91a12.215,12.215,0,0,1-12.215,12.215H313.111A18.484,18.484,0,0,0,294.5,343.2a18.25,18.25,0,0,0,18.222,18.782h24.8a6.108,6.108,0,0,1,6.108,6.108h0A6.108,6.108,0,0,1,337.524,374.2Z" transform="translate(-282.278 -313.307)"/></g><g transform="translate(290.837 337.645)"><path class="c" d="M346.242,472.334l-37.51-36.245h0a12.229,12.229,0,0,1,17.282-.291L346.7,455.776c5.053-4.4,9.829-8.609,14.5-12.779,1.281-1.144,2.619-2.288,3.912-3.393,7.39-6.316,14.37-12.281,14.37-20.627a18.25,18.25,0,0,0-18.23-18.23H334.93a6.108,6.108,0,0,1-6.108-6.108h0a6.108,6.108,0,0,1,6.108-6.108H360.67c15.978,0,29.6,12.1,30.921,28.02,1.28,15.393-9.768,24.835-18.547,32.338-1.3,1.112-2.529,2.162-3.711,3.217-6,5.357-12.167,10.777-18.864,16.571Z" transform="translate(-308.732 -388.532)"/></g><rect class="d" width="23.551" height="12.215" rx="6.108" transform="translate(320.119 361.983)"/></g><text class="e" transform="translate(130 232)"><tspan x="0" y="0">S</tspan><tspan class="c" y="0">PARK</tspan></text></g></svg>