<svg xmlns="http://www.w3.org/2000/svg" xmlns:xlink="http://www.w3.org/1999/xlink" viewBox="0 0 169.82 238.86">
  <defs>
    <linearGradient id="linear-gradient" x1="-114.05" y1="410.18" x2="-114.05" y2="411.18" gradientTransform="matrix(11.58, -10.42, -10.42, -11.58, 5623.26, 3614.61)" gradientUnits="userSpaceOnUse">
      <stop offset="0" stop-color="#439549"/>
      <stop offset="1" stop-color="#809f3b"/>
    </linearGradient>
    <linearGradient id="linear-gradient-2" x1="-114.05" y1="410.18" x2="-114.05" y2="411.18" gradientTransform="matrix(11.58, -10.42, -10.42, -11.58, 5713.75, 3659.02)" xlink:href="#linear-gradient"/>
    <linearGradient id="linear-gradient-3" x1="-114.05" y1="410.18" x2="-114.05" y2="411.18" gradientTransform="matrix(11.58, -10.42, -10.42, -11.58, 5700.37, 3573)" xlink:href="#linear-gradient"/>
  </defs>
  <title>no-data</title>
  <g id="Layer_2" data-name="Layer 2">
    <g id="Layer_1-2" data-name="Layer 1">
      <g id="Group_2319" data-name="Group 2319">
        <g id="box">
          <g id="Group_2311" data-name="Group 2311">
            <g id="Group_2309" data-name="Group 2309">
              <g id="Group_2302" data-name="Group 2302">
                <g id="Group_2297" data-name="Group 2297">
                  <path id="Path_518" data-name="Path 518" d="M146.67,139.21V203a5.26,5.26,0,0,1-2.77,4.64l-56.47,30.6a5.23,5.23,0,0,1-5,0l-56.47-30.6A5.3,5.3,0,0,1,23.16,203V139.21Z" fill="#a8e7ef"/>
                  <g id="Group_2296" data-name="Group 2296">
                    <path id="Path_519" data-name="Path 519" d="M146.67,150.68v21.7L114,190.06a5.31,5.31,0,0,1-4.22.36L84.91,182v-31.3Z" fill="#70d9e6"/>
                    <path id="Path_520" data-name="Path 520" d="M135.5,139.21v73l8.4-4.55a5.26,5.26,0,0,0,2.77-4.64V139.21Z" fill="#70d9e6"/>
                    <path id="Path_521" data-name="Path 521" d="M84.92,139.21v99.65a5.27,5.27,0,0,1-2.52-.64l-56.47-30.6A5.27,5.27,0,0,1,23.17,203V139.21Z" fill="#70d9e6"/>
                  </g>
                  <path id="Path_522" data-name="Path 522" d="M84.92,150.68V182L60,190.42a5.29,5.29,0,0,1-4.21-.36L23.16,172.38v-21.7Z" fill="#3ad1e0"/>
                  <path id="Path_523" data-name="Path 523" d="M74,139.21v94.44l8.44,4.57a5.27,5.27,0,0,0,2.52.64V139.21Z" fill="#3ad1e0"/>
                  <path id="Path_524" data-name="Path 524" d="M84.91,105.75,23.16,139.21l61.75,33.46,61.76-33.46Z" fill="#756f6f"/>
                  <path id="Path_525" data-name="Path 525" d="M134,146.1l-49,26.57L35.87,146.1,68,128.69a35.49,35.49,0,0,1,33.83,0Z" fill="#5b5555"/>
                </g>
                <g id="Group_2298" data-name="Group 2298">
                  <path id="Path_526" data-name="Path 526" d="M166.31,116.67l-19.64,22.54L84.91,105.75l20.43-23.43a2.64,2.64,0,0,1,3.25-.58l57,30.87a2.65,2.65,0,0,1,1.07,3.58A2.43,2.43,0,0,1,166.31,116.67Z" fill="#a8e7ef"/>
                </g>
                <g id="Group_2299" data-name="Group 2299">
                  <path id="Path_528" data-name="Path 528" d="M3.52,116.67l19.65,22.54,61.75-33.46L64.49,82.32a2.64,2.64,0,0,0-3.25-.58l-57,30.87a2.65,2.65,0,0,0-1.06,3.59,2.21,2.21,0,0,0,.33.47Z" fill="#d4f2f6"/>
                </g>
                <g id="Group_2300" data-name="Group 2300">
                  <path id="Path_530" data-name="Path 530" d="M1.8,146.44l21.36-7.23,61.75,33.46L60,181.11a5.29,5.29,0,0,1-4.21-.36L1.39,151.27a2.65,2.65,0,0,1,.41-4.83Z" fill="#a8e7ef"/>
                </g>
                <g id="Group_2301" data-name="Group 2301">
                  <path id="Path_531" data-name="Path 531" d="M168,146.44l-21.36-7.23L84.91,172.67l24.92,8.43a5.21,5.21,0,0,0,4.21-.36l54.4-29.47a2.65,2.65,0,0,0-.41-4.83Z" fill="#d4f2f6"/>
                </g>
              </g>
              <path id="Path_532" data-name="Path 532" d="M101.41,217a2.92,2.92,0,0,1-1.39-5.48l6.68-3.62a2.91,2.91,0,1,1,2.78,5.12l-6.68,3.63A2.93,2.93,0,0,1,101.41,217Z" fill="#525252"/>
            </g>
          </g>
          <g id="Group_2315" data-name="Group 2315">
            <path id="Path_539" data-name="Path 539" d="M111.59,148.81a26.69,26.69,0,0,1-2.19,10.6L84.91,172.67,60.43,159.41a26.68,26.68,0,1,1,51.16-10.6Z" fill="#7eb100"/>
            <path id="Path_540" data-name="Path 540" d="M111.58,148.81a26.51,26.51,0,0,1-2.18,10.6l-17.24,9.33a26.67,26.67,0,0,0-12.48-46.09,26.69,26.69,0,0,1,31.9,26.16Z" fill="#7caa09"/>
            <g id="Group_2314" data-name="Group 2314">
              <path id="Path_541" data-name="Path 541" d="M90.21,159.66a2.92,2.92,0,0,1-1.89-.7,5.8,5.8,0,0,0-3.71-1.27h0a5.72,5.72,0,0,0-3.71,1.25,2.92,2.92,0,0,1-3.76-4.46,11.6,11.6,0,0,1,7.47-2.62h0a11.52,11.52,0,0,1,7.49,2.67,2.91,2.91,0,0,1-1.9,5.12Z" fill="#e3e3e3"/>
              <g id="Group_2313" data-name="Group 2313">
                <g id="Group_2312" data-name="Group 2312">
                  <path id="Path_542" data-name="Path 542" d="M72.24,149.06h0a2.93,2.93,0,0,1-2.91-2.93,2.89,2.89,0,0,1,2.9-2.89h.05a2.91,2.91,0,0,1,0,5.82Z" fill="#e3e3e3"/>
                </g>
              </g>
            </g>
          </g>
          <path id="Path_543" data-name="Path 543" d="M97.61,149.06h0a2.92,2.92,0,0,1,0-5.83h0a2.92,2.92,0,1,1,0,5.83Z" fill="#e3e3e3"/>
        </g>
        <g id="Group_2318" data-name="Group 2318">
          <path id="Path_546" data-name="Path 546" d="M28.38,44.19a7.79,7.79,0,1,1-11-.58h0A7.78,7.78,0,0,1,28.38,44.19Z" fill="url(#linear-gradient)"/>
          <g id="Group_2316" data-name="Group 2316">
            <path id="Rectangle_769" data-name="Rectangle 769" d="M48.41,12h0a1.08,1.08,0,0,1,1.53.08l9.35,10.38A1.09,1.09,0,0,1,59.21,24h0a1.09,1.09,0,0,1-1.53-.08L48.33,13.51A1.09,1.09,0,0,1,48.41,12Z" fill="#30954b"/>
            <path id="Rectangle_770" data-name="Rectangle 770" d="M59.8,12.58h0a1.08,1.08,0,0,1-.08,1.53L49.35,23.45a1.08,1.08,0,0,1-1.53-.08h0a1.08,1.08,0,0,1,.08-1.53L58.27,12.5A1.08,1.08,0,0,1,59.8,12.58Z" fill="#30954b"/>
          </g>
          <circle id="Ellipse_198" data-name="Ellipse 198" cx="68.88" cy="61.45" r="5.95" fill="none" stroke="#30954b" stroke-miterlimit="10" stroke-width="2"/>
          <circle id="Ellipse_199" data-name="Ellipse 199" cx="117.13" cy="55.85" r="5.95" fill="none" stroke="#30954b" stroke-miterlimit="10" stroke-width="2"/>
          <path id="Path_547" data-name="Path 547" d="M118.86,88.6a7.79,7.79,0,1,1-11-.58,7.78,7.78,0,0,1,11,.58Z" fill="url(#linear-gradient-2)"/>
          <path id="Path_548" data-name="Path 548" d="M105.49,2.58a7.79,7.79,0,1,1-11-.58h0A7.78,7.78,0,0,1,105.49,2.58Z" fill="url(#linear-gradient-3)"/>
          <g id="Group_2317" data-name="Group 2317">
            <path id="Rectangle_771" data-name="Rectangle 771" d="M63.24,94.55h0a1.08,1.08,0,0,1,1.53.08L74.12,105a1.09,1.09,0,0,1-.08,1.53h0a1.08,1.08,0,0,1-1.53-.08L63.16,96.08A1.09,1.09,0,0,1,63.24,94.55Z" fill="#30954b"/>
            <path id="Rectangle_772" data-name="Rectangle 772" d="M74.63,95.14h0a1.08,1.08,0,0,1-.08,1.53L64.17,106a1.09,1.09,0,0,1-1.53-.08h0a1.09,1.09,0,0,1,.08-1.53L73.1,95.06A1.09,1.09,0,0,1,74.63,95.14Z" fill="#30954b"/>
          </g>
        </g>
      </g>
    </g>
  </g>
</svg>
