<svg xmlns="http://www.w3.org/2000/svg" viewBox="0 0 297.15 334.86">
  <title>S-logo</title>
  <g style="isolation: isolate">
    <g id="Layer_2" data-name="Layer 2">
      <g id="Layer_1-2" data-name="Layer 1">
        <g>
          <g style="mix-blend-mode: soft-light">
            <path d="M184.91,194.55,111.31,187C60.8,181.88,22.57,137.6,26.77,87A92.83,92.83,0,0,1,128.59,2.39L291.93,19.06h0a37.2,37.2,0,0,1-40.79,33.23L126,39.52c-30-3.07-57.89,17.85-61.85,47.81a55.59,55.59,0,0,0,49.4,62.54l75.14,7.66a18.62,18.62,0,0,1,16.62,20.4h0A18.6,18.6,0,0,1,184.91,194.55Z" fill="#3e4932"/>
            <path d="M142.49,334.86,40.05,213.45h0a37.24,37.24,0,0,1,52.45,4.46L149,284.84c16.66-11.77,32.44-23,47.87-34.24,4.24-3.07,8.64-6.12,12.9-9.07,24.34-16.85,47.34-32.77,49.92-58.05a55.58,55.58,0,0,0-49.6-60.87l-79.74-8.14a18.59,18.59,0,0,1-16.61-20.39h0a18.6,18.6,0,0,1,20.39-16.62l78,8c48.41,4.94,85.93,45.8,85,94.45-.88,47-37.27,72.23-66.19,92.25-4.29,3-8.34,5.77-12.24,8.6-19.83,14.37-40.2,28.89-62.28,44.37Z" fill="#3e4932"/>
          </g>
          <path d="M170.76,188.21H95.68C44.15,188.21,1,147.44,0,95.92A94.21,94.21,0,0,1,94.1,0H260.73A37.76,37.76,0,0,1,223,37.76H95.3c-30.66,0-56.61,24-57.52,54.64a56.42,56.42,0,0,0,56.32,58h76.66a18.88,18.88,0,0,1,18.88,18.88h0A18.89,18.89,0,0,1,170.76,188.21Z" fill="#fff"/>
          <path d="M142.39,334.25l-115.94-112h0a37.8,37.8,0,0,1,53.42-.9l63.93,61.75c15.62-13.6,30.38-26.61,44.81-39.5,4-3.54,8.09-7.07,12.09-10.49,22.84-19.52,44.42-38,44.42-63.75A56.42,56.42,0,0,0,188.77,113H107.43A18.88,18.88,0,0,1,88.55,94.1h0a18.88,18.88,0,0,1,18.88-18.88H187c49.38,0,91.47,37.39,95.57,86.61,4,47.58-30.19,76.76-57.33,99.95-4,3.44-7.82,6.68-11.47,10-18.53,16.55-37.6,33.31-58.3,51.21Z" fill="#fff"/>
          <rect x="116.96" y="150.45" width="72.79" height="37.76" rx="18.88" fill="#008082"/>
        </g>
      </g>
    </g>
  </g>
</svg>
